<svg width="32" height="32" viewBox="0 0 32 32" fill="none" xmlns="http://www.w3.org/2000/svg">
  <!-- Background circle with gradient -->
  <defs>
    <linearGradient id="bgGradient" x1="0%" y1="0%" x2="100%" y2="100%">
      <stop offset="0%" style="stop-color:#667eea;stop-opacity:1" />
      <stop offset="100%" style="stop-color:#764ba2;stop-opacity:1" />
    </linearGradient>
    <linearGradient id="shieldGradient" x1="0%" y1="0%" x2="100%" y2="100%">
      <stop offset="0%" style="stop-color:#ffffff;stop-opacity:1" />
      <stop offset="100%" style="stop-color:#f8f9ff;stop-opacity:1" />
    </linearGradient>
  </defs>
  
  <circle cx="16" cy="16" r="16" fill="url(#bgGradient)"/>
  
  <!-- Document/Contract icon -->
  <rect x="8" y="6" width="10" height="14" rx="1" fill="url(#shieldGradient)" stroke="#667eea" stroke-width="0.5"/>
  <rect x="9.5" y="8.5" width="7" height="0.8" fill="#667eea"/>
  <rect x="9.5" y="10" width="5" height="0.8" fill="#667eea"/>
  <rect x="9.5" y="11.5" width="6" height="0.8" fill="#667eea"/>
  <rect x="9.5" y="13" width="4" height="0.8" fill="#667eea"/>
  
  <!-- AI/Scanning lines overlay -->
  <rect x="8" y="6" width="10" height="14" rx="1" fill="none" stroke="#667eea" stroke-width="0.5" stroke-dasharray="1,1" opacity="0.3"/>
  
  <!-- Shield/Protection icon -->
  <path d="M16 4L20 6V12C20 16 16 20 16 20C16 20 12 16 12 12V6L16 4Z" fill="url(#shieldGradient)" stroke="#667eea" stroke-width="1"/>
  
  <!-- AI/Checkmark inside shield -->
  <path d="M14 10L15.5 11.5L18 9" stroke="#667eea" stroke-width="1.5" stroke-linecap="round" stroke-linejoin="round"/>
  
  <!-- Small AI indicator dots -->
  <circle cx="14" cy="7" r="0.8" fill="#667eea" opacity="0.6"/>
  <circle cx="18" cy="7" r="0.8" fill="#667eea" opacity="0.6"/>
  <circle cx="16" cy="9" r="0.8" fill="#667eea" opacity="0.6"/>
</svg>
