<svg width="60" height="60" viewBox="0 0 60 60" fill="none" xmlns="http://www.w3.org/2000/svg">
  <!-- Background with subtle gradient -->
  <defs>
    <linearGradient id="bgGradient" x1="0%" y1="0%" x2="100%" y2="100%">
      <stop offset="0%" style="stop-color:#667eea;stop-opacity:1" />
      <stop offset="100%" style="stop-color:#764ba2;stop-opacity:1" />
    </linearGradient>
    <linearGradient id="shieldGradient" x1="0%" y1="0%" x2="100%" y2="100%">
      <stop offset="0%" style="stop-color:#ffffff;stop-opacity:1" />
      <stop offset="100%" style="stop-color:#f8f9ff;stop-opacity:1" />
    </linearGradient>
    <linearGradient id="documentGradient" x1="0%" y1="0%" x2="100%" y2="100%">
      <stop offset="0%" style="stop-color:#ffffff;stop-opacity:1" />
      <stop offset="100%" style="stop-color:#f0f4ff;stop-opacity:1" />
    </linearGradient>
  </defs>
  
  <!-- Main logo container -->
  <circle cx="30" cy="30" r="30" fill="url(#bgGradient)"/>
  
  <!-- Document/Contract icon -->
  <rect x="12" y="12" width="30" height="36" rx="3" fill="url(#documentGradient)" stroke="#ffffff" stroke-width="2"/>
  <rect x="15" y="18" width="24" height="2.5" fill="#667eea"/>
  <rect x="15" y="23" width="18" height="2.5" fill="#667eea"/>
  <rect x="15" y="28" width="21" height="2.5" fill="#667eea"/>
  <rect x="15" y="33" width="15" height="2.5" fill="#667eea"/>
  <rect x="15" y="38" width="19" height="2.5" fill="#667eea"/>
  
  <!-- AI scanning effect -->
  <rect x="12" y="12" width="30" height="36" rx="3" fill="none" stroke="#ffffff" stroke-width="1.5" stroke-dasharray="3,3" opacity="0.4"/>
  
  <!-- Shield/Protection icon -->
  <path d="M30 8L38 12V24C38 36 30 48 30 48C30 48 22 36 22 24V12L30 8Z" fill="url(#shieldGradient)" stroke="#ffffff" stroke-width="2.5"/>
  
  <!-- AI checkmark inside shield -->
  <path d="M26 20L28.5 22.5L34 17" stroke="#667eea" stroke-width="3" stroke-linecap="round" stroke-linejoin="round"/>
  
  <!-- AI indicator dots -->
  <circle cx="26" cy="16" r="2" fill="#ffffff" opacity="0.8"/>
  <circle cx="34" cy="16" r="2" fill="#ffffff" opacity="0.8"/>
  <circle cx="30" cy="18" r="2" fill="#ffffff" opacity="0.8"/>
</svg>
